{
	"asset":{
		"generator":"Khronos glTF Blender I/O v3.6.28",
		"version":"2.0"
	},
	"scene":0,
	"scenes":[
		{
			"name":"Scene",
			"nodes":[
				5,
				6
			]
		}
	],
	"nodes":[
		{
			"name":"arm.L",
			"rotation":[
				-0.6353176236152649,
				-0.5032251477241516,
				-0.5032250881195068,
				0.29983416199684143
			],
			"scale":[
				1.0000001192092896,
				1,
				1.0000001192092896
			],
			"translation":[
				0,
				1,
				0
			]
		},
		{
			"name":"arm.R",
			"rotation":[
				-0.6353176236152649,
				0.5032251477241516,
				0.5032250881195068,
				0.29983416199684143
			],
			"scale":[
				1.0000001192092896,
				1,
				1.0000001192092896
			],
			"translation":[
				0,
				1,
				0
			]
		},
		{
			"name":"neck",
			"translation":[
				0,
				1,
				0
			]
		},
		{
			"children":[
				0,
				1,
				2
			],
			"name":"spine",
			"translation":[
				0,
				1,
				0
			]
		},
		{
			"children":[
				3
			],
			"name":"root"
		},
		{
			"children":[
				4
			],
			"name":"Armature"
		},
		{
			"mesh":0,
			"name":"Cube",
			"skin":0
		}
	],
	"animations":[
		{
			"channels":[
				{
					"sampler":0,
					"target":{
						"node":4,
						"path":"translation"
					}
				},
				{
					"sampler":1,
					"target":{
						"node":4,
						"path":"rotation"
					}
				},
				{
					"sampler":2,
					"target":{
						"node":4,
						"path":"scale"
					}
				},
				{
					"sampler":3,
					"target":{
						"node":3,
						"path":"translation"
					}
				},
				{
					"sampler":4,
					"target":{
						"node":3,
						"path":"rotation"
					}
				},
				{
					"sampler":5,
					"target":{
						"node":3,
						"path":"scale"
					}
				},
				{
					"sampler":6,
					"target":{
						"node":0,
						"path":"translation"
					}
				},
				{
					"sampler":7,
					"target":{
						"node":0,
						"path":"rotation"
					}
				},
				{
					"sampler":8,
					"target":{
						"node":0,
						"path":"scale"
					}
				},
				{
					"sampler":9,
					"target":{
						"node":1,
						"path":"translation"
					}
				},
				{
					"sampler":10,
					"target":{
						"node":1,
						"path":"rotation"
					}
				},
				{
					"sampler":11,
					"target":{
						"node":1,
						"path":"scale"
					}
				},
				{
					"sampler":12,
					"target":{
						"node":2,
						"path":"translation"
					}
				},
				{
					"sampler":13,
					"target":{
						"node":2,
						"path":"rotation"
					}
				},
				{
					"sampler":14,
					"target":{
						"node":2,
						"path":"scale"
					}
				}
			],
			"name":"ArmatureAction",
			"samplers":[
				{
					"input":6,
					"interpolation":"STEP",
					"output":7
				},
				{
					"input":8,
					"interpolation":"LINEAR",
					"output":9
				},
				{
					"input":6,
					"interpolation":"STEP",
					"output":10
				},
				{
					"input":6,
					"interpolation":"STEP",
					"output":11
				},
				{
					"input":8,
					"interpolation":"LINEAR",
					"output":12
				},
				{
					"input":6,
					"interpolation":"STEP",
					"output":13
				},
				{
					"input":6,
					"interpolation":"STEP",
					"output":14
				},
				{
					"input":8,
					"interpolation":"LINEAR",
					"output":15
				},
				{
					"input":6,
					"interpolation":"STEP",
					"output":16
				},
				{
					"input":6,
					"interpolation":"STEP",
					"output":17
				},
				{
					"input":8,
					"interpolation":"LINEAR",
					"output":18
				},
				{
					"input":6,
					"interpolation":"STEP",
					"output":19
				},
				{
					"input":6,
					"interpolation":"STEP",
					"output":20
				},
				{
					"input":8,
					"interpolation":"LINEAR",
					"output":21
				},
				{
					"input":6,
					"interpolation":"STEP",
					"output":22
				}
			]
		}
	],
	"meshes":[
		{
			"name":"slenderman",
			"primitives":[
				{
					"attributes":{
						"POSITION":0,
						"NORMAL":1,
						"JOINTS_0":2,
						"WEIGHTS_0":3
					},
					"indices":4
				}
			]
		}
	],
	"skins":[
		{
			"inverseBindMatrices":5,
			"joints":[
				4,
				3,
				0,
				1,
				2
			],
			"name":"Armature"
		}
	],
	"accessors":[
		{
			"bufferView":0,
			"componentType":5126,
			"count":152,
			"max":[
				1.5770817995071411,
				3.0430991649627686,
				0.28452062606811523
			],
			"min":[
				-1.5770817995071411,
				0,
				-0.17047728598117828
			],
			"type":"VEC3"
		},
		{
			"bufferView":1,
			"componentType":5126,
			"count":152,
			"type":"VEC3"
		},
		{
			"bufferView":2,
			"componentType":5121,
			"count":152,
			"type":"VEC4"
		},
		{
			"bufferView":3,
			"componentType":5126,
			"count":152,
			"type":"VEC4"
		},
		{
			"bufferView":4,
			"componentType":5123,
			"count":228,
			"type":"SCALAR"
		},
		{
			"bufferView":5,
			"componentType":5126,
			"count":5,
			"type":"MAT4"
		},
		{
			"bufferView":6,
			"componentType":5126,
			"count":2,
			"max":[
				4.5
			],
			"min":[
				0.1
			],
			"type":"SCALAR"
		},
		{
			"bufferView":7,
			"componentType":5126,
			"count":2,
			"type":"VEC3"
		},
		{
			"bufferView":8,
			"componentType":5126,
			"count":45,
			"max":[
				4.5
			],
			"min":[
				0.1
			],
			"type":"SCALAR"
		},
		{
			"bufferView":9,
			"componentType":5126,
			"count":45,
			"type":"VEC4"
		},
		{
			"bufferView":10,
			"componentType":5126,
			"count":2,
			"type":"VEC3"
		},
		{
			"bufferView":11,
			"componentType":5126,
			"count":2,
			"type":"VEC3"
		},
		{
			"bufferView":12,
			"componentType":5126,
			"count":45,
			"type":"VEC4"
		},
		{
			"bufferView":13,
			"componentType":5126,
			"count":2,
			"type":"VEC3"
		},
		{
			"bufferView":14,
			"componentType":5126,
			"count":2,
			"type":"VEC3"
		},
		{
			"bufferView":15,
			"componentType":5126,
			"count":45,
			"type":"VEC4"
		},
		{
			"bufferView":16,
			"componentType":5126,
			"count":2,
			"type":"VEC3"
		},
		{
			"bufferView":17,
			"componentType":5126,
			"count":2,
			"type":"VEC3"
		},
		{
			"bufferView":18,
			"componentType":5126,
			"count":45,
			"type":"VEC4"
		},
		{
			"bufferView":19,
			"componentType":5126,
			"count":2,
			"type":"VEC3"
		},
		{
			"bufferView":20,
			"componentType":5126,
			"count":2,
			"type":"VEC3"
		},
		{
			"bufferView":21,
			"componentType":5126,
			"count":45,
			"type":"VEC4"
		},
		{
			"bufferView":22,
			"componentType":5126,
			"count":2,
			"type":"VEC3"
		}
	],
	"bufferViews":[
		{
			"buffer":0,
			"byteLength":1824,
			"byteOffset":0,
			"target":34962
		},
		{
			"buffer":0,
			"byteLength":1824,
			"byteOffset":1824,
			"target":34962
		},
		{
			"buffer":0,
			"byteLength":608,
			"byteOffset":3648,
			"target":34962
		},
		{
			"buffer":0,
			"byteLength":2432,
			"byteOffset":4256,
			"target":34962
		},
		{
			"buffer":0,
			"byteLength":456,
			"byteOffset":6688,
			"target":34963
		},
		{
			"buffer":0,
			"byteLength":320,
			"byteOffset":7144
		},
		{
			"buffer":0,
			"byteLength":8,
			"byteOffset":7464
		},
		{
			"buffer":0,
			"byteLength":24,
			"byteOffset":7472
		},
		{
			"buffer":0,
			"byteLength":180,
			"byteOffset":7496
		},
		{
			"buffer":0,
			"byteLength":720,
			"byteOffset":7676
		},
		{
			"buffer":0,
			"byteLength":24,
			"byteOffset":8396
		},
		{
			"buffer":0,
			"byteLength":24,
			"byteOffset":8420
		},
		{
			"buffer":0,
			"byteLength":720,
			"byteOffset":8444
		},
		{
			"buffer":0,
			"byteLength":24,
			"byteOffset":9164
		},
		{
			"buffer":0,
			"byteLength":24,
			"byteOffset":9188
		},
		{
			"buffer":0,
			"byteLength":720,
			"byteOffset":9212
		},
		{
			"buffer":0,
			"byteLength":24,
			"byteOffset":9932
		},
		{
			"buffer":0,
			"byteLength":24,
			"byteOffset":9956
		},
		{
			"buffer":0,
			"byteLength":720,
			"byteOffset":9980
		},
		{
			"buffer":0,
			"byteLength":24,
			"byteOffset":10700
		},
		{
			"buffer":0,
			"byteLength":24,
			"byteOffset":10724
		},
		{
			"buffer":0,
			"byteLength":720,
			"byteOffset":10748
		},
		{
			"buffer":0,
			"byteLength":24,
			"byteOffset":11468
		}
	],
	"buffers":[
		{
			"byteLength":11492,
			"uri":"slenderman.bin"
		}
	]
}
